<?xml version="1.0" standalone="no"?>
<!DOCTYPE svg PUBLIC "-//W3C//DTD SVG 20010904//EN"
 "http://www.w3.org/TR/2001/REC-SVG-20010904/DTD/svg10.dtd">
<svg version="1.0" xmlns="http://www.w3.org/2000/svg"
 width="683.000000pt" height="512.000000pt" viewBox="0 0 683.000000 512.000000"
 preserveAspectRatio="xMidYMid meet">

<g transform="translate(0.000000,512.000000) scale(0.100000,-0.100000)"
fill="#000000" stroke="none">
<path d="M920 5110 c0 -23 -41 -50 -76 -50 -36 0 -70 -22 -60 -39 21 -34 -45
-57 -69 -24 -15 21 -35 9 -35 -22 0 -28 17 -34 170 -60 52 -9 109 -20 125 -25
17 -5 95 -21 175 -35 80 -14 188 -35 240 -46 123 -25 129 -25 101 5 -14 15
-21 33 -19 48 3 20 8 23 42 21 52 -4 59 -12 48 -61 l-9 -40 41 -11 c37 -9 43
-8 66 13 14 13 42 26 63 29 37 6 39 5 57 -39 20 -47 42 -55 92 -35 13 5 32 12
42 15 10 4 17 9 14 12 -3 2 -17 0 -31 -5 -20 -8 -28 -6 -41 8 -9 10 -16 26
-16 35 0 14 -5 17 -24 12 -18 -4 -29 0 -43 17 -38 47 -88 77 -131 77 -31 0
-42 4 -42 15 0 13 -11 16 -47 14 -27 -1 -68 4 -93 10 -25 7 -50 13 -57 13 -9
1 -9 9 1 32 9 23 20 32 41 34 15 2 31 0 34 -5 21 -29 91 -63 130 -63 23 0 55
-7 70 -15 25 -13 49 -20 137 -42 14 -3 23 1 27 11 12 30 -3 46 -44 46 -34 0
-39 3 -44 28 -4 15 -10 35 -15 44 -11 19 -9 21 41 37 47 15 61 51 20 51 -29 0
-105 -65 -95 -81 3 -5 2 -14 -1 -19 -11 -18 -43 8 -55 45 -14 43 -24 44 -40 5
-7 -16 -18 -30 -26 -30 -7 0 -18 -9 -24 -20 -14 -26 -34 -25 -53 3 -16 25 -7
57 17 57 12 0 26 20 26 36 0 11 -105 2 -119 -10 -9 -7 -37 -17 -62 -20 -41 -6
-47 -4 -51 12 -5 19 -17 20 -202 21 -131 1 -196 -2 -196 -9z"/>
<path d="M2002 5113 c2 -5 12 -25 21 -45 20 -44 32 -52 73 -50 38 3 56 -16 61
-66 2 -20 6 -62 9 -93 5 -49 3 -60 -15 -78 -11 -11 -29 -21 -40 -21 -14 0 -20
-10 -24 -37 -4 -21 -3 -41 2 -46 5 -5 50 -16 101 -24 90 -15 94 -15 108 3 10
14 16 15 19 6 8 -21 36 -44 42 -34 8 12 51 22 51 11 0 -5 -5 -9 -11 -9 -5 0
-7 -4 -4 -10 8 -13 45 -13 45 -1 0 6 -5 13 -11 16 -7 5 -3 14 10 26 27 25 26
33 -4 49 -14 7 -25 17 -25 22 0 19 -19 6 -22 -14 -4 -28 -44 -36 -73 -14 -16
12 -20 27 -21 78 -1 35 -4 83 -9 107 -4 28 -4 41 3 38 5 -4 17 2 27 13 10 11
13 20 8 20 -14 0 -43 89 -43 129 l0 31 -141 0 c-77 0 -139 -3 -137 -7z"/>
<path d="M2343 5109 c-14 -14 -16 -44 -7 -101 6 -32 11 -38 30 -38 27 0 31 19
12 53 -7 12 -14 39 -17 60 -5 31 -8 36 -18 26z"/>
<path d="M2659 5108 c-1 -7 -1 -17 0 -22 1 -4 -5 -19 -14 -32 -14 -22 -14 -27
1 -59 16 -35 14 -65 -6 -65 -6 0 -13 14 -16 30 -8 35 -18 38 -41 10 -10 -11
-23 -20 -30 -20 -8 0 -13 -12 -13 -28 0 -16 -10 -39 -22 -52 -21 -22 -22 -22
-29 -4 -7 16 -8 15 -8 -6 0 -30 20 -60 41 -60 21 0 42 -53 34 -84 -5 -19 -15
-27 -40 -31 -25 -5 -35 -13 -39 -31 -2 -13 0 -21 5 -18 5 3 15 0 23 -6 12 -10
17 -7 25 14 19 52 100 17 86 -38 -3 -14 -2 -28 4 -31 14 -9 193 -34 202 -29 4
3 52 0 105 -7 65 -8 129 -9 188 -4 l90 9 -60 8 c-33 4 -66 6 -73 3 -16 -6 -43
7 -68 32 -13 13 -34 18 -75 18 -44 0 -64 5 -81 20 -17 15 -38 20 -83 21 -83 1
-83 1 -87 31 -2 19 -12 32 -30 41 -33 16 -70 60 -66 81 2 8 17 18 33 22 17 3
37 8 45 10 9 3 16 -5 18 -21 2 -14 11 -33 19 -42 10 -11 13 -26 8 -47 -6 -29
-5 -31 25 -31 32 0 41 11 44 55 1 28 11 33 20 10 3 -8 15 -15 26 -15 11 0 20
-4 20 -9 0 -21 41 -59 59 -54 19 5 19 5 0 24 -10 10 -19 26 -19 34 0 8 -4 15
-8 15 -5 0 -9 7 -9 15 0 8 3 15 7 15 11 0 50 -50 50 -65 0 -7 11 -27 25 -42
21 -24 26 -26 35 -13 8 12 12 13 19 2 6 -11 12 -10 26 4 12 13 16 27 11 52 -6
40 18 77 35 51 6 -10 9 -10 9 -1 0 6 9 12 20 12 11 0 20 -4 20 -8 0 -5 -9 -17
-20 -27 -20 -19 -28 -41 -10 -30 6 3 10 2 10 -4 0 -5 3 -16 6 -25 5 -12 0 -16
-17 -16 -19 -1 -21 -2 -9 -10 17 -10 100 8 112 25 5 5 -2 18 -13 27 -16 14
-20 26 -17 53 3 27 0 35 -12 35 -9 0 -30 14 -47 30 -24 23 -33 43 -38 83 -4
29 -15 61 -25 72 -10 11 -30 46 -44 78 l-25 57 -155 0 c-118 0 -156 -3 -157
-12z m243 -15 c10 -9 18 -23 18 -31 0 -7 7 -26 16 -42 10 -15 14 -35 11 -43
-7 -18 -72 -51 -85 -43 -5 3 -12 36 -15 73 -7 94 12 125 55 86z m148 -187 c0
-8 -4 -17 -9 -21 -12 -7 -24 12 -16 25 9 15 25 12 25 -4z m-133 -102 c-9 -9
-28 6 -21 18 4 6 10 6 17 -1 6 -6 8 -13 4 -17z"/>
<path d="M3030 5107 c0 -22 34 -47 64 -47 15 0 36 -5 47 -10 16 -9 19 -7 19 9
0 20 25 35 42 25 12 -8 88 16 88 28 0 4 -58 8 -130 8 -102 0 -130 -3 -130 -13z"/>
<path d="M3554 5105 c-4 -8 -1 -21 5 -29 13 -16 6 -42 -15 -50 -31 -12 -11
-26 36 -26 40 0 51 4 60 21 7 11 17 18 24 16 26 -10 39 9 32 47 l-7 36 -65 0
c-48 0 -66 -4 -70 -15z"/>
<path d="M445 5089 c-10 -15 3 -25 16 -12 7 7 7 13 1 17 -6 3 -14 1 -17 -5z"/>
<path d="M665 5091 c-19 -8 -19 -8 2 -19 29 -16 53 -15 53 2 0 11 -24 29 -33
25 -1 0 -11 -4 -22 -8z"/>
<path d="M3965 5064 c-21 -19 -48 -34 -60 -33 -46 3 -53 0 -48 -23 3 -13 12
-30 20 -40 8 -9 14 -25 13 -35 -4 -34 0 -53 10 -53 6 0 40 23 75 52 60 47 64
53 49 69 -10 11 -13 26 -9 42 4 14 3 32 -2 40 -6 12 -15 9 -48 -19z"/>
<path d="M6600 5085 c-14 -8 -20 -14 -14 -15 5 0 19 7 30 15 24 18 16 19 -16
0z"/>
<path d="M2431 5074 c0 -11 3 -14 6 -6 3 7 2 16 -1 19 -3 4 -6 -2 -5 -13z"/>
<path d="M1873 5050 c-9 -13 -9 -21 -2 -26 12 -7 29 13 29 34 0 18 -14 15 -27
-8z"/>
<path d="M2515 5060 c-8 -13 5 -13 25 0 13 8 13 10 -2 10 -9 0 -20 -4 -23 -10z"/>
<path d="M6555 5059 c-4 -6 -5 -12 -2 -15 2 -3 7 2 10 11 7 17 1 20 -8 4z"/>
<path d="M5072 4952 c5 -32 15 -79 22 -107 8 -27 14 -60 14 -73 1 -26 44 -91
50 -74 2 6 -1 19 -6 29 -6 10 -13 45 -17 78 -3 33 -12 78 -20 100 -7 22 -16
52 -19 66 -3 15 -12 29 -19 32 -11 4 -12 -6 -5 -51z"/>
<path d="M5796 4984 c-3 -9 -6 -24 -6 -34 0 -24 -21 -31 -74 -24 -27 4 -46 2
-50 -5 -5 -8 36 -11 149 -11 102 0 154 3 150 10 -3 6 -12 10 -20 10 -25 0 -65
23 -65 37 0 8 -12 13 -30 13 -16 0 -30 5 -30 10 0 16 -17 12 -24 -6z"/>
<path d="M580 4980 c0 -5 7 -10 16 -10 8 0 12 5 9 10 -3 6 -10 10 -16 10 -5 0
-9 -4 -9 -10z"/>
<path d="M3519 4938 c-12 -23 -12 -23 10 -4 23 21 26 26 11 26 -5 0 -15 -10
-21 -22z"/>
<path d="M2046 4932 c-2 -4 1 -18 8 -31 15 -27 31 -13 21 19 -6 20 -20 26 -29
12z"/>
<path d="M6648 4904 c-26 -14 -40 -38 -43 -79 -1 -11 -5 -38 -10 -60 -6 -34
-5 -38 6 -27 8 7 19 27 25 45 6 18 22 37 35 44 57 28 98 43 118 43 12 0 21 4
21 9 0 15 -59 34 -89 28 -16 -4 -31 -2 -33 3 -2 4 -15 2 -30 -6z"/>
<path d="M3150 4875 c0 -14 7 -28 15 -32 21 -8 24 -3 18 30 -7 34 -33 36 -33
2z"/>
<path d="M1886 4864 c-9 -22 -8 -24 9 -24 8 0 15 6 15 14 0 22 -17 28 -24 10z"/>
<path d="M3201 4831 c-11 -7 -9 -10 8 -16 25 -8 36 -2 26 14 -8 13 -15 14 -34
2z"/>
<path d="M5950 4821 c0 -11 5 -23 10 -26 6 -4 10 5 10 19 0 14 -4 26 -10 26
-5 0 -10 -9 -10 -19z"/>
<path d="M4463 4745 c-29 -28 -53 -57 -53 -63 0 -7 -3 -12 -7 -12 -5 0 -21
-24 -37 -53 -16 -28 -42 -65 -58 -81 -16 -17 -43 -49 -60 -73 -17 -23 -48 -54
-69 -69 -22 -15 -39 -34 -39 -43 -1 -23 -69 -115 -148 -195 -37 -39 -75 -82
-84 -96 -8 -14 -44 -56 -79 -94 -260 -282 -374 -358 -606 -405 -131 -27 -256
-27 -488 2 -11 1 -20 -2 -20 -8 -2 -12 -22 -60 -40 -94 -8 -16 -30 -30 -61
-40 -66 -22 -74 -28 -74 -60 0 -16 -9 -39 -19 -52 -16 -20 -27 -23 -69 -21
l-50 2 -8 -47 c-9 -44 -11 -47 -55 -59 -25 -8 -60 -27 -77 -44 -18 -16 -36
-30 -40 -30 -13 0 -46 -39 -39 -46 10 -10 57 5 57 19 0 7 27 25 60 40 33 16
60 32 60 37 0 6 11 10 25 10 20 0 25 -5 25 -26 0 -21 4 -25 23 -22 16 2 23 11
25 30 4 37 77 110 105 106 31 -4 31 -57 1 -80 -12 -10 -26 -18 -31 -18 -4 0
-26 -14 -47 -30 -26 -20 -51 -30 -73 -30 -29 0 -36 -5 -48 -34 -14 -34 -59
-71 -74 -61 -5 3 -26 -12 -47 -33 l-37 -37 56 -3 c42 -2 73 4 124 24 37 15 75
33 84 40 8 8 20 14 25 14 5 0 34 17 65 39 31 21 82 53 114 71 32 18 68 41 79
51 11 11 25 19 30 19 6 0 22 10 36 23 14 12 43 31 65 42 22 11 42 23 45 27 3
3 23 13 45 21 22 8 49 18 60 23 52 19 196 50 201 43 8 -14 34 -11 50 6 9 8 31
15 50 15 19 0 59 13 91 30 31 17 66 30 77 30 12 0 31 7 42 15 10 8 26 15 35
15 9 0 22 7 29 15 7 8 28 15 48 15 19 0 59 12 89 26 30 14 65 26 78 27 13 1
37 14 54 30 17 15 41 27 53 27 40 0 68 12 68 27 0 11 7 14 26 10 16 -3 28 0
31 9 3 8 14 14 24 14 10 0 19 6 19 14 0 14 42 26 93 26 17 0 28 3 24 6 -3 4 0
13 8 21 10 10 15 36 15 84 l0 69 63 0 c35 0 68 5 74 11 7 7 47 12 95 13 79 1
83 0 86 -21 3 -17 10 -23 28 -23 13 0 24 -4 24 -10 0 -16 27 -12 34 5 3 9 3
39 1 68 -4 41 0 62 18 98 32 63 28 114 -14 175 -18 27 -36 51 -41 52 -13 6 -9
62 5 66 57 18 65 16 81 -19 9 -19 21 -37 26 -40 18 -11 114 -212 119 -250 5
-32 11 -41 29 -43 25 -4 27 5 10 45 -6 15 -15 62 -19 103 -11 117 -26 205 -38
228 -14 26 -14 69 -1 77 7 4 6 14 -2 28 -15 25 -19 117 -7 117 5 0 9 14 9 30
0 23 4 30 20 30 13 0 20 7 20 20 0 13 -7 20 -20 20 -11 0 -20 6 -20 14 0 8
-14 17 -32 21 -18 4 -68 20 -111 37 -66 26 -82 29 -103 19 -22 -10 -29 -9 -43
7 -15 18 -18 16 -68 -33z m182 -575 c3 -5 -1 -10 -10 -10 -9 0 -13 5 -10 10 3
6 8 10 10 10 2 0 7 -4 10 -10z m-1907 -816 c0 -26 -3 -31 -16 -27 -10 4 -13 2
-8 -6 11 -18 -72 -97 -86 -83 -8 8 -8 15 1 26 7 8 10 24 6 36 -5 15 2 29 28
55 44 44 75 44 75 -1z"/>
<path d="M3315 4779 c-4 -6 -18 -8 -30 -5 -13 3 -27 1 -30 -5 -8 -13 58 -79
80 -79 8 0 15 -3 15 -7 0 -5 4 -15 10 -23 7 -12 13 -9 34 13 32 35 32 37 -1
69 -39 36 -70 51 -78 37z"/>
<path d="M1992 4708 c3 -7 15 -14 29 -16 24 -4 24 -3 4 12 -24 19 -38 20 -33
4z"/>
<path d="M5897 4702 c-24 -26 -21 -34 11 -30 19 2 28 9 30 26 4 27 -18 29 -41
4z"/>
<path d="M5185 4700 c-3 -5 -1 -10 4 -10 6 0 11 5 11 10 0 6 -2 10 -4 10 -3 0
-8 -4 -11 -10z"/>
<path d="M6537 4614 c-8 -8 1 -24 14 -24 5 0 9 7 9 15 0 15 -12 20 -23 9z"/>
<path d="M5452 4551 c-10 -6 -8 -10 10 -14 41 -12 52 -9 38 8 -14 17 -29 19
-48 6z"/>
<path d="M5818 4513 c-10 -2 -18 -11 -18 -19 0 -16 61 -19 95 -4 19 8 19 9 -2
9 -12 1 -25 6 -28 11 -6 10 -17 11 -47 3z"/>
<path d="M6700 4429 c0 -5 -11 -7 -25 -3 -35 9 -33 -20 3 -43 15 -9 38 -26 52
-38 14 -11 42 -28 63 -38 l37 -17 0 35 c0 22 -6 38 -15 41 -8 4 -15 12 -15 20
0 8 -4 14 -10 14 -5 0 -10 7 -10 15 0 8 -3 15 -7 16 -41 6 -73 5 -73 -2z"/>
<path d="M184 4106 c22 -18 56 -21 56 -6 0 6 -6 10 -12 10 -7 0 -24 3 -38 6
-24 5 -24 5 -6 -10z"/>
<path d="M300 4083 c0 -4 4 -14 8 -21 10 -15 45 -5 39 12 -4 13 -47 21 -47 9z"/>
<path d="M419 4063 c-10 -3 -16 -15 -17 -33 -1 -25 3 -30 21 -30 32 1 93 35
78 44 -19 12 -65 22 -82 19z"/>
<path d="M547 4016 c-4 -9 -2 -16 3 -16 6 0 10 -10 10 -22 0 -21 4 -23 51 -21
33 1 58 8 70 19 20 18 20 18 -6 31 -14 8 -47 17 -74 20 -38 4 -49 2 -54 -11z"/>
<path d="M731 3976 c-10 -12 -11 -19 -2 -30 8 -10 9 -16 1 -21 -5 -3 -10 -11
-10 -16 0 -16 70 2 108 27 l34 24 -28 11 c-53 20 -89 22 -103 5z"/>
<path d="M893 3943 c9 -2 23 -2 30 0 6 3 -1 5 -18 5 -16 0 -22 -2 -12 -5z"/>
<path d="M980 3924 c1 -23 21 -36 61 -40 48 -5 81 8 64 25 -13 13 -125 26
-125 15z"/>
<path d="M5463 3908 c-29 -14 -35 -32 -18 -54 11 -15 15 -16 28 -5 21 17 37 6
37 -25 0 -14 6 -24 14 -24 7 0 19 -7 26 -15 19 -23 33 -18 58 20 27 43 27 42
-2 49 -14 3 -34 20 -46 36 -23 32 -55 38 -97 18z"/>
<path d="M871 3894 l-22 -16 21 -20 c15 -14 28 -18 50 -13 28 6 43 35 18 35
-6 0 -19 7 -28 15 -14 13 -19 13 -39 -1z"/>
<path d="M5842 3899 c-13 -5 -22 -15 -20 -21 7 -21 48 -21 63 -1 23 31 3 41
-43 22z"/>
<path d="M5360 3886 c0 -21 20 -30 33 -17 9 9 8 14 -3 21 -21 14 -30 12 -30
-4z"/>
<path d="M1177 3883 c-17 -16 -6 -43 21 -49 15 -3 33 -8 41 -10 16 -5 61 22
61 36 0 18 -108 39 -123 23z"/>
<path d="M5745 3860 c-5 -15 -10 -19 -17 -12 -13 13 -38 4 -60 -22 -12 -15
-13 -23 -5 -28 22 -14 56 -8 67 11 5 11 24 22 40 26 22 5 30 12 28 23 -5 26
-45 27 -53 2z"/>
<path d="M1346 3824 c9 -37 5 -34 47 -41 32 -5 38 -2 48 21 7 14 10 28 7 31
-3 3 -29 8 -57 12 l-52 6 7 -29z"/>
<path d="M4630 3830 c0 -5 5 -10 10 -10 6 0 10 5 10 10 0 6 -4 10 -10 10 -5 0
-10 -4 -10 -10z"/>
<path d="M1035 3809 c-11 -17 0 -20 44 -13 29 5 38 10 29 15 -19 12 -66 11
-73 -2z"/>
<path d="M1510 3801 c0 -5 6 -11 14 -14 8 -3 16 -16 18 -29 5 -36 40 -35 60 2
17 30 17 31 -8 40 -32 12 -84 13 -84 1z"/>
<path d="M1697 3772 c-17 -4 -17 -12 0 -59 3 -7 -2 -16 -11 -19 -15 -6 -15 -8
4 -21 21 -15 40 -10 40 9 0 6 6 19 14 27 13 14 12 19 -7 41 -12 14 -30 24 -40
22z"/>
<path d="M1219 3739 c-15 -16 -21 -29 -14 -29 12 0 50 48 43 55 -2 2 -15 -10
-29 -26z"/>
<path d="M1788 3743 c6 -2 18 -2 25 0 6 3 1 5 -13 5 -14 0 -19 -2 -12 -5z"/>
<path d="M1855 3730 c-3 -5 1 -10 9 -10 9 0 16 5 16 10 0 6 -4 10 -9 10 -6 0
-13 -4 -16 -10z"/>
<path d="M492 3693 c-10 -4 -10 -8 -1 -19 13 -15 39 -19 39 -5 0 14 -24 29
-38 24z"/>
<path d="M2042 3676 c-34 -19 -35 -22 -16 -50 9 -15 14 -29 11 -33 -4 -3 -2
-14 4 -25 8 -15 13 -17 25 -7 21 17 17 46 -7 52 -16 4 -19 10 -14 29 4 13 14
29 23 36 20 15 4 14 -26 -2z"/>
<path d="M2144 3666 c-8 -22 -7 -23 49 -31 43 -7 47 -6 47 14 0 11 -6 21 -14
21 -7 0 -27 3 -45 6 -23 5 -32 2 -37 -10z"/>
<path d="M666 3642 c-6 -10 52 -77 60 -69 7 6 -36 77 -46 77 -5 0 -11 -4 -14
-8z"/>
<path d="M2365 3629 c-9 -14 -7 -15 38 -22 20 -3 37 -2 37 3 0 18 -66 35 -75
19z"/>
<path d="M5342 3628 c6 -16 48 -23 48 -8 0 6 -4 8 -10 5 -5 -3 -10 -1 -10 4 0
6 -7 11 -16 11 -9 0 -14 -6 -12 -12z"/>
<path d="M5434 3604 c3 -9 6 -20 6 -25 0 -4 13 -6 28 -3 18 4 34 1 43 -9 24
-23 85 -26 98 -5 11 18 1 22 -63 21 -11 0 -27 8 -38 19 -23 23 -83 25 -74 2z"/>
<path d="M2540 3580 c0 -10 -6 -20 -12 -23 -19 -6 -7 -15 32 -21 30 -5 38 -2
53 20 11 14 17 27 15 28 -1 2 -22 6 -45 9 -37 4 -43 2 -43 -13z"/>
<path d="M2396 3571 c-4 -5 -2 -12 3 -15 5 -4 12 -2 15 3 4 5 2 12 -3 15 -5 4
-12 2 -15 -3z"/>
<path d="M5898 3562 c-68 -3 -91 -18 -63 -42 10 -9 19 -9 35 0 12 6 34 9 49 5
18 -4 43 2 72 15 24 12 35 19 23 17 -12 -2 -27 -2 -35 2 -8 3 -44 5 -81 3z"/>
<path d="M2435 3510 c8 -13 -21 -59 -49 -80 -20 -14 -28 -16 -68 -19 -10 -1
-18 -5 -18 -10 0 -17 30 -20 57 -6 15 8 34 15 42 15 7 0 32 19 56 43 l42 43
-26 12 c-31 15 -44 15 -36 2z"/>
<path d="M1120 3410 c0 -5 5 -10 11 -10 5 0 7 5 4 10 -3 6 -8 10 -11 10 -2 0
-4 -4 -4 -10z"/>
<path d="M1286 3381 c-9 -14 5 -42 18 -38 18 6 20 47 2 47 -8 0 -17 -4 -20 -9z"/>
<path d="M2242 3366 c-18 -6 -49 -27 -68 -46 l-36 -35 32 -8 c27 -7 34 -4 53
20 12 15 30 36 40 46 26 26 17 36 -21 23z"/>
<path d="M1808 3363 c7 -3 16 -2 19 1 4 3 -2 6 -13 5 -11 0 -14 -3 -6 -6z"/>
<path d="M1605 3270 c-3 -5 1 -10 9 -10 9 0 16 5 16 10 0 6 -4 10 -9 10 -6 0
-13 -4 -16 -10z"/>
<path d="M2038 3163 c-22 -5 -24 -29 -3 -37 8 -3 19 3 25 14 17 31 15 33 -22
23z"/>
<path d="M848 3109 c-10 -5 -18 -17 -18 -25 0 -8 -15 -21 -33 -29 -43 -18 -63
-54 -47 -85 11 -21 12 -21 64 27 53 48 76 81 76 108 0 17 -17 19 -42 4z"/>
<path d="M765 3090 c-3 -5 1 -10 9 -10 9 0 16 5 16 10 0 6 -4 10 -9 10 -6 0
-13 -4 -16 -10z"/>
<path d="M521 3046 c-53 -14 -71 -41 -22 -34 31 5 31 4 13 -16 -28 -32 -45
-77 -33 -89 13 -13 70 9 93 35 12 13 24 18 35 14 10 -4 14 -4 11 0 -4 3 -1 13
7 21 8 8 15 24 15 35 0 20 -1 20 -18 5 -25 -23 -35 -21 -27 4 5 14 2 25 -6 30
-16 10 -11 10 -68 -5z"/>
<path d="M1900 3036 c0 -2 7 -7 16 -10 8 -3 12 -2 9 4 -6 10 -25 14 -25 6z"/>
<path d="M893 3023 c-14 -5 -18 -63 -4 -63 8 0 25 60 19 65 -2 1 -9 0 -15 -2z"/>
<path d="M4022 2958 c4 -11 14 -15 81 -32 41 -10 32 10 -13 28 -48 19 -73 21
-68 4z"/>
<path d="M4397 2951 c-16 -6 -15 -9 10 -33 37 -34 161 -59 156 -30 -2 6 6 12
17 12 11 0 20 3 20 8 0 12 -73 31 -103 25 -15 -3 -33 -1 -40 4 -20 16 -41 21
-60 14z"/>
<path d="M5196 2902 c-2 -4 -4 -17 -2 -28 2 -15 12 -20 44 -22 33 -2 42 -7 42
-21 0 -25 29 -49 39 -33 9 15 107 -86 122 -124 7 -19 -2 -14 -34 21 -24 25
-51 45 -60 45 -9 0 -17 5 -17 12 0 6 -8 4 -19 -6 -11 -10 -19 -25 -19 -34 1
-10 -2 -27 -6 -40 -6 -19 -4 -24 13 -29 28 -7 34 -34 17 -68 -13 -25 -12 -31
17 -86 28 -52 30 -61 17 -72 -8 -7 -16 -27 -18 -46 -2 -29 0 -33 18 -28 12 3
18 1 14 -5 -4 -6 -2 -13 3 -17 17 -10 26 -51 12 -51 -7 0 3 -17 22 -37 18 -20
26 -31 17 -24 -21 16 -23 9 -6 -19 10 -15 9 -22 -6 -39 -10 -11 -15 -24 -12
-30 4 -5 -1 -50 -9 -99 -9 -50 -14 -96 -13 -103 2 -10 -5 -13 -22 -11 -31 5
-28 2 38 -37 60 -35 70 -38 51 -14 -12 15 -12 16 4 10 10 -4 23 -7 28 -7 6 0
8 -4 4 -9 -3 -5 2 -16 10 -24 13 -14 11 -19 -14 -46 -27 -29 -49 -42 -36 -22
3 6 -3 15 -14 20 -24 13 -34 14 -27 2 3 -5 -1 -12 -10 -15 -23 -9 -26 -8 -18
7 6 9 5 9 -7 0 -8 -6 -26 -11 -41 -10 -21 2 -30 9 -38 31 -5 15 -7 32 -4 37 3
5 -3 9 -14 9 -11 0 -31 9 -45 20 -32 25 -41 25 -59 -1 -11 -17 -25 -22 -65
-23 -46 -2 -51 0 -48 20 2 20 -1 20 -34 12 -46 -12 -101 11 -77 31 13 11 12
16 -7 35 -13 14 -32 23 -49 22 -22 -2 -25 1 -18 15 8 13 4 18 -20 23 -57 11
-81 -18 -38 -48 12 -9 17 -16 11 -16 -6 0 -23 14 -36 30 -28 33 -37 37 -37 17
0 -7 -8 -22 -18 -33 -19 -21 -26 -114 -9 -125 13 -9 -2 -31 -15 -23 -7 5 -9 1
-5 -9 3 -8 -1 -21 -9 -28 -8 -6 -12 -14 -10 -17 3 -2 1 -13 -5 -23 -7 -14 -21
-19 -54 -19 l-44 0 15 -27 c16 -32 18 -53 5 -53 -5 0 -13 -10 -17 -22 -4 -13
-14 -29 -23 -36 -9 -7 -11 -12 -6 -11 27 4 27 -3 0 -15 -25 -10 -32 -10 -43 1
-17 17 -32 17 -32 -1 0 -39 -63 -41 -75 -3 -4 14 -8 17 -12 9 -2 -6 -9 -10
-14 -6 -5 3 -4 14 3 27 15 28 18 97 4 97 -6 0 -16 8 -23 19 -8 13 -19 17 -38
14 -18 -4 -25 -2 -23 8 2 8 -4 13 -14 13 -10 -1 -18 3 -18 8 0 6 -17 8 -42 4
-24 -3 -53 -6 -65 -6 -13 0 -23 -4 -23 -9 0 -6 -9 -9 -20 -8 -11 1 -20 4 -20
7 0 3 -8 6 -18 6 -21 0 -29 -45 -11 -57 9 -5 8 -11 -2 -21 -12 -13 -16 -12
-32 8 -14 19 -16 28 -7 44 8 15 8 20 -2 20 -9 0 -10 3 -2 8 6 4 14 19 18 35 4
18 13 27 26 27 11 0 20 6 20 14 0 34 -155 57 -199 29 -34 -22 -71 -66 -66 -80
2 -6 -2 -14 -10 -17 -8 -3 -14 -13 -14 -23 -1 -39 -5 -53 -13 -53 -5 0 -4 -8
1 -18 7 -13 7 -22 -1 -30 -8 -8 -4 -10 16 -6 24 4 26 3 14 -16 -7 -11 -18 -20
-25 -20 -7 0 -13 -6 -13 -14 0 -8 -4 -18 -10 -21 -6 -4 -7 1 -3 11 4 12 3 15
-5 10 -22 -14 0 -71 24 -62 7 3 24 -4 37 -16 22 -20 23 -23 10 -49 -18 -37
-33 -46 -28 -17 4 23 4 23 -11 3 -16 -21 -44 -22 -56 -2 -4 6 -4 24 -1 39 4
21 2 28 -11 28 -9 0 -16 4 -16 10 0 5 -16 17 -35 26 -20 9 -34 19 -31 21 6 7
-43 57 -60 59 -8 1 -11 -2 -8 -7 10 -16 -17 -41 -31 -29 -7 6 -41 10 -76 9
-35 -2 -74 1 -86 5 -17 7 -24 3 -37 -21 -14 -28 -13 -31 6 -47 13 -12 28 -16
45 -11 21 5 24 3 19 -11 -3 -9 -1 -23 5 -31 9 -11 9 -17 0 -26 -10 -9 -11 -8
-6 4 4 10 2 20 -4 24 -6 3 -11 0 -11 -8 0 -7 -7 -14 -15 -14 -8 0 -15 9 -15
19 0 10 -4 18 -10 18 -5 0 -10 -5 -10 -12 0 -6 -9 -3 -20 7 -11 10 -23 15 -27
12 -3 -4 -4 -7 0 -7 3 0 -1 -16 -9 -35 -10 -24 -11 -34 -3 -33 7 2 14 -12 16
-31 4 -30 3 -33 -11 -22 -17 14 -67 12 -79 -4 -4 -5 -5 16 -1 48 6 51 4 57
-10 51 -13 -5 -14 -9 -5 -20 9 -11 8 -18 -1 -29 -7 -8 -9 -15 -5 -15 4 0 1 -7
-6 -16 -16 -20 -22 -51 -10 -58 5 -3 14 1 21 9 16 19 31 19 24 1 -5 -14 25
-38 43 -35 18 3 53 -14 53 -26 0 -16 -25 -26 -45 -19 -11 4 -16 -5 -21 -36 -4
-23 -13 -44 -20 -47 -10 -4 -11 -10 -4 -23 7 -13 7 -21 0 -25 -22 -14 -10 -51
20 -62 17 -7 32 -7 36 -2 3 5 0 9 -5 9 -6 0 -11 7 -11 16 0 8 5 12 10 9 12 -8
13 -3 0 29 -5 14 -6 26 -2 26 16 0 32 -25 32 -49 0 -24 1 -24 14 -5 13 16 12
20 0 27 -8 5 -12 16 -9 26 3 11 -4 25 -20 39 -26 22 -36 60 -12 46 13 -8 41
-44 43 -56 1 -5 2 -10 3 -13 0 -2 13 7 27 20 19 18 31 22 39 15 14 -12 25 -3
25 22 0 10 5 18 10 18 9 0 14 -17 13 -47 0 -6 5 -9 12 -6 8 2 21 -7 30 -21 14
-21 15 -29 5 -42 -7 -8 -20 -12 -29 -9 -9 3 -6 -3 6 -12 16 -13 21 -24 17 -40
-4 -13 -10 -20 -15 -17 -11 6 -12 -7 -1 -22 11 -16 41 -24 47 -14 13 21 22 8
23 -31 1 -24 -2 -38 -8 -34 -6 3 -14 -4 -19 -17 -6 -13 -10 -17 -11 -8 0 8
-17 23 -36 33 -32 16 -39 16 -59 3 -20 -13 -35 -53 -35 -92 0 -8 10 -14 24
-14 13 0 26 -4 28 -9 2 -6 21 -5 48 1 79 17 109 14 228 -25 40 -14 75 -20 78
-16 3 5 16 9 28 9 13 0 41 7 62 16 49 21 138 44 167 44 12 0 40 16 62 35 22
19 49 37 60 40 60 14 139 24 147 19 5 -3 12 3 15 14 7 30 30 35 37 9 5 -19 8
-20 17 -7 9 12 10 11 6 -8 -4 -17 0 -22 16 -23 12 -1 31 -3 42 -5 11 -2 42 -5
69 -8 l49 -5 -27 28 c-18 19 -34 27 -47 24 -10 -3 -19 0 -19 6 0 6 4 11 9 11
11 0 2 39 -13 59 -9 12 -8 13 6 8 13 -4 16 -2 11 11 -5 14 -3 15 8 5 16 -15
33 -17 24 -3 -3 5 0 7 8 4 8 -3 18 -1 22 5 10 17 32 13 32 -6 0 -10 -8 -26
-18 -37 -20 -21 -17 -36 7 -36 9 0 12 -5 8 -11 -11 -18 32 -89 54 -89 5 0 16
-7 23 -16 21 -26 88 -12 121 25 25 28 34 31 84 31 47 0 57 -3 61 -20 5 -18 14
-20 97 -20 145 1 368 17 401 31 17 6 75 15 130 18 97 6 100 7 97 29 -2 21 1
23 35 20 33 -3 38 0 41 20 4 27 12 28 41 3 13 -12 30 -17 39 -13 14 5 15 4 2
-10 -9 -10 -17 -12 -21 -6 -4 7 -9 7 -13 0 -7 -11 21 -25 35 -16 5 3 9 -1 9
-9 0 -16 -46 -58 -54 -50 -3 4 -6 1 -6 -5 0 -21 63 -23 113 -4 26 10 44 21 41
25 -4 4 2 7 14 7 11 0 22 3 24 8 5 13 91 72 105 72 7 0 13 7 13 15 0 8 8 15
18 15 9 0 22 12 29 26 10 22 9 25 -5 23 -33 -3 -40 1 -37 23 7 44 8 53 7 86
-2 28 -8 36 -32 45 -18 7 -33 22 -39 39 -6 16 -22 33 -36 38 -20 8 -25 15 -20
30 4 12 2 20 -5 20 -6 0 -8 4 -5 10 3 5 0 7 -8 4 -10 -3 -14 4 -15 26 0 18 4
30 12 30 7 0 21 9 31 20 18 20 18 21 -6 48 -13 15 -27 29 -31 32 -4 3 -3 12 2
20 14 21 12 30 -5 30 -8 0 -15 6 -15 14 0 8 -3 16 -7 18 -5 2 -15 19 -24 38
-14 31 -15 39 -3 55 8 10 14 29 14 40 0 27 34 60 51 49 8 -5 10 -3 4 5 -4 7
-7 31 -7 53 1 22 -5 57 -13 77 -8 20 -17 54 -20 75 -6 46 -40 121 -68 153 -20
22 -20 23 6 56 14 19 34 53 43 76 16 39 16 44 -1 80 -18 40 -73 77 -108 72
-15 -2 -17 2 -12 18 4 14 1 23 -9 27 -9 3 -16 15 -16 25 0 25 -26 35 -45 19
-21 -18 -65 -4 -65 20 0 19 -102 130 -119 130 -5 0 -11 22 -14 50 -6 50 -31
100 -49 100 -6 0 -36 15 -67 32 -31 18 -63 33 -71 35 -8 1 -29 4 -47 8 -17 3
-34 2 -37 -3z m206 -334 c9 -23 -2 -40 -17 -28 -8 6 -11 18 -8 26 6 17 19 18
25 2z m73 -28 c-3 -5 -12 -10 -18 -10 -7 0 -6 4 3 10 19 12 23 12 15 0z m5
-55 c0 -8 -2 -15 -4 -15 -2 0 -6 7 -10 15 -3 8 -1 15 4 15 6 0 10 -7 10 -15z
m20 -166 c0 -4 -11 -6 -24 -6 -22 0 -23 1 -8 18 12 14 18 15 24 6 4 -6 8 -15
8 -18z m85 -93 c7 -6 10 -16 8 -23 -2 -6 1 -14 6 -18 7 -4 8 -12 1 -24 -8 -15
-6 -17 14 -14 28 6 42 -12 26 -32 -6 -8 -9 -19 -5 -25 4 -6 -1 -17 -11 -25
-17 -12 -16 -14 14 -13 18 1 30 3 27 6 -3 3 4 12 16 20 11 8 22 12 25 9 8 -8
-8 -37 -17 -31 -5 3 -9 -2 -9 -10 0 -20 19 -20 49 0 17 12 26 13 34 5 8 -8 5
-11 -12 -11 -17 0 -21 -4 -16 -19 3 -11 1 -22 -5 -26 -5 -3 -10 -15 -10 -26 0
-10 -4 -19 -10 -19 -24 0 -1 -41 27 -51 9 -3 6 -17 -10 -50 -18 -38 -25 -44
-38 -36 -22 14 -49 2 -49 -20 0 -14 2 -15 9 -4 5 7 11 9 14 5 3 -5 -6 -17 -19
-27 -23 -17 -23 -17 -17 0 5 14 3 16 -7 6 -9 -8 -19 -9 -37 0 -19 9 -23 16
-18 38 5 24 2 30 -24 43 -16 9 -38 16 -47 16 -9 0 -35 19 -57 43 -22 23 -37
34 -34 25 4 -10 2 -18 -3 -18 -16 0 -12 28 10 68 10 20 21 45 24 55 3 9 15 17
27 17 12 0 28 -8 36 -17 14 -17 14 -17 9 0 -6 17 -1 19 43 15 47 -3 50 -2 53
24 3 15 2 27 -1 26 -42 -4 -59 30 -35 67 12 18 12 25 3 31 -8 5 -9 3 -4 -6 6
-10 4 -12 -10 -7 -11 5 -22 1 -29 -8 -10 -14 -14 -13 -35 9 l-24 26 24 2 c13
0 29 1 36 1 8 0 6 8 -5 24 l-16 26 34 -18 c19 -10 39 -23 45 -29z m224 -255
c8 -5 9 -11 3 -15 -5 -3 -15 1 -22 9 -14 16 -3 20 19 6z m-1039 -41 c0 -5 -7
-10 -15 -10 -8 0 -15 5 -15 10 0 6 7 10 15 10 8 0 15 -4 15 -10z m1060 -21
c11 -8 12 -12 2 -16 -6 -2 -9 -9 -6 -15 4 -7 -5 -8 -27 -3 -44 10 -48 14 -25
31 23 17 36 17 56 3z m-1073 -16 c10 11 43 -13 43 -32 0 -10 -7 -24 -16 -32
-8 -7 -21 -26 -29 -43 -11 -27 -13 -28 -14 -9 -1 12 -6 33 -12 47 -9 19 -9 29
0 40 8 10 9 16 1 21 -5 3 -10 11 -10 17 0 6 6 6 15 -2 9 -7 18 -10 22 -7z
m783 -107 c-7 -7 -13 -7 -20 0 -6 6 -3 10 10 10 13 0 16 -4 10 -10z m83 -127
c-3 -10 -9 -22 -14 -25 -18 -10 -9 -24 16 -24 29 0 33 -23 10 -47 -21 -20 -33
-8 -17 17 11 18 10 20 -9 20 -18 0 -20 5 -18 40 2 21 0 42 -4 46 -17 17 -5 23
17 9 16 -11 22 -22 19 -36z m-1633 -35 c0 -8 -6 -22 -14 -30 -13 -12 -14 -10
-11 13 2 16 4 29 4 31 3 10 21 -1 21 -14z m920 1 c11 -13 10 -14 -4 -9 -9 3
-16 10 -16 15 0 13 6 11 20 -6z m-259 -32 c7 -18 6 -30 -1 -37 -15 -14 -41 20
-33 42 5 11 3 13 -7 7 -9 -5 -11 -4 -6 3 12 21 36 13 47 -15z m933 -18 c-4 -8
-11 -15 -16 -15 -6 0 -5 6 2 15 7 8 14 15 16 15 2 0 1 -7 -2 -15z m-1964 -50
c8 -11 14 -23 13 -27 -2 -4 4 -5 12 -2 21 8 19 -2 -5 -26 -18 -18 -20 -18 -30
-2 -9 14 -11 12 -7 -10 3 -20 0 -28 -11 -28 -12 0 -11 -5 6 -20 12 -11 26 -20
32 -20 5 0 10 -4 10 -10 0 -5 -5 -10 -11 -10 -7 0 -17 -8 -24 -17 -11 -15 -15
-14 -39 10 -17 18 -24 32 -19 44 6 16 5 16 -10 4 -10 -8 -20 -11 -23 -9 -3 3
9 16 26 28 16 12 27 26 24 32 -8 12 -13 70 -7 81 8 14 47 3 63 -18z m1477 3
c-3 -8 -6 -5 -6 6 -1 11 2 17 5 13 3 -3 4 -12 1 -19z m504 -15 c-12 -20 -14
-14 -5 12 4 9 9 14 11 11 3 -2 0 -13 -6 -23z m-2191 -5 c0 -6 -6 -5 -15 2 -8
7 -15 14 -15 16 0 2 7 1 15 -2 8 -4 15 -11 15 -16z m373 4 c-10 -10 -20 -17
-22 -16 -6 5 20 34 30 34 5 0 1 -8 -8 -18z m457 9 c0 -4 18 -8 39 -8 34 0 71
-19 71 -37 0 -9 -62 -36 -71 -30 -5 3 -9 -3 -9 -13 0 -15 -2 -15 -9 -3 -6 8
-7 18 -4 23 3 5 -3 5 -13 -1 -16 -9 -20 -6 -29 21 -7 20 -8 37 -2 45 11 14 27
16 27 3z m247 -13 c-3 -8 -6 -5 -6 6 -1 11 2 17 5 13 3 -3 4 -12 1 -19z
m-1112 2 c3 -5 1 -10 -4 -10 -6 0 -11 5 -11 10 0 6 2 10 4 10 3 0 8 -4 11 -10z
m1818 -5 c-3 -9 -8 -14 -10 -11 -3 3 -2 9 2 15 9 16 15 13 8 -4z m-1233 -10
c0 -8 5 -15 11 -15 5 0 7 -4 4 -10 -11 -18 -45 -11 -45 8 0 10 3 22 7 25 11
12 23 8 23 -8z m1644 -36 c-18 -20 -44 -26 -44 -9 0 6 9 10 19 10 12 0 22 10
27 28 6 21 8 23 11 9 3 -10 -3 -27 -13 -38z m-14 21 c0 -5 -4 -10 -10 -10 -5
0 -10 5 -10 10 0 6 5 10 10 10 6 0 10 -4 10 -10z m-1550 -18 c0 -4 -8 -12 -18
-18 -15 -10 -18 -8 -19 7 -1 13 5 19 18 19 10 0 19 -3 19 -8z m1562 -54 c-7
-7 -12 -8 -12 -2 0 14 12 26 19 19 2 -3 -1 -11 -7 -17z m-106 0 c5 -7 2 -9 -8
-5 -9 3 -23 -2 -33 -13 -17 -19 -35 -18 -35 1 0 6 4 8 9 4 6 -3 16 1 23 9 16
18 34 20 44 4z m-2024 -29 c-12 -14 -19 -16 -29 -7 -18 15 1 38 26 31 18 -4
18 -6 3 -24z m1453 -56 c3 -27 1 -43 -6 -43 -18 0 -59 48 -59 69 0 11 -10 26
-22 32 -19 10 -27 5 -80 -50 -33 -34 -64 -59 -69 -55 -7 4 -6 10 0 18 6 7 8
16 4 19 -13 14 20 54 56 70 20 9 53 16 74 15 20 -1 40 2 44 6 14 14 52 -40 58
-81z m-255 70 c0 -14 -19 -38 -25 -32 -8 8 5 39 16 39 5 0 9 -3 9 -7z m-834
-38 c-9 -7 -13 -15 -10 -18 4 -3 -1 -13 -10 -22 -9 -9 -16 -27 -16 -40 0 -13
-3 -30 -6 -38 -3 -8 6 -26 20 -40 28 -28 17 -40 -23 -26 -19 8 -21 12 -11 24
9 11 9 15 1 15 -7 0 -10 4 -7 9 4 5 1 11 -5 13 -8 3 -7 14 5 36 9 18 14 37 11
42 -3 6 1 10 10 10 11 0 15 5 11 15 -3 8 -1 15 4 15 6 0 10 10 10 21 0 18 2
20 16 8 14 -12 14 -14 0 -24z m1689 25 c3 -6 -1 -7 -9 -4 -18 7 -21 14 -7 14
6 0 13 -4 16 -10z m-2177 -26 c7 4 6 -5 -1 -24 -15 -40 -21 -38 -24 8 -2 24 0
32 6 23 5 -7 13 -11 19 -7z m1191 -3 c11 -7 9 -11 -8 -20 -11 -7 -21 -16 -21
-21 0 -16 76 -49 99 -43 24 6 31 -21 8 -30 -41 -16 -201 50 -191 78 4 8 12 15
19 15 7 0 15 7 19 15 6 16 53 20 75 6z m1035 -22 c-10 -11 -20 -16 -23 -11 -3
4 -16 7 -28 6 -14 -1 -23 4 -23 14 0 11 3 12 13 4 7 -6 18 -7 26 -2 8 4 21 6
29 2 11 -4 13 -1 7 8 -6 9 -4 11 4 6 9 -6 8 -13 -5 -27z m-1934 6 c0 -8 -4
-15 -10 -15 -5 0 -10 7 -10 15 0 8 5 15 10 15 6 0 10 -7 10 -15z m1480 -5 c13
-11 19 -20 14 -20 -13 1 -61 40 -48 40 6 0 21 -9 34 -20z m-1244 -23 c10 3 15
2 12 -3 -9 -14 8 -49 23 -49 8 0 14 -4 14 -10 2 -35 18 -85 26 -80 5 4 9 2 9
-3 0 -6 -6 -12 -14 -15 -22 -9 -46 26 -46 66 0 27 -5 37 -20 42 -28 9 -52 48
-44 70 7 17 8 16 15 -3 6 -15 13 -20 25 -15z m-591 13 c3 -5 1 -10 -4 -10 -6
0 -11 5 -11 10 0 6 2 10 4 10 3 0 8 -4 11 -10z m2111 -25 c-2 -8 2 -16 10 -19
9 -3 14 -14 12 -23 -1 -10 1 -24 6 -31 5 -9 1 -15 -13 -19 -11 -3 -18 -10 -15
-15 10 -16 -28 -36 -60 -31 -17 2 -58 17 -90 34 -52 25 -61 27 -68 14 -9 -16
-38 -21 -38 -7 0 5 11 14 25 20 14 6 25 18 25 26 0 20 30 48 45 43 6 -3 17 4
23 14 7 10 20 19 30 19 16 -1 16 -1 0 -14 -27 -20 -21 -25 17 -15 20 6 46 8
58 5 l22 -6 -22 11 c-34 18 -28 30 8 17 18 -6 28 -16 25 -23z m-2145 2 c-13
-13 -26 -3 -16 12 3 6 11 8 17 5 6 -4 6 -10 -1 -17z m1859 4 c0 -20 -60 -61
-104 -71 -42 -9 -50 -8 -62 7 -7 10 -14 21 -14 26 0 12 38 8 43 -5 5 -17 75
15 94 42 12 18 43 18 43 1z m-1501 -36 c0 -5 -4 -3 -9 5 -5 8 -9 22 -9 30 0
16 17 -16 18 -35z m99 24 c9 -13 9 -16 -3 -16 -8 0 -12 4 -9 9 3 4 0 8 -6 8
-6 0 -8 5 -5 11 4 6 8 9 9 7 1 -2 7 -10 14 -19z m646 9 c-5 -8 0 -9 15 -5 18
4 21 2 15 -11 -4 -9 -14 -37 -23 -62 l-15 -45 -7 38 c-3 21 -11 43 -17 49 -14
14 3 48 24 48 9 0 12 -5 8 -12z m1166 -3 c0 -8 -4 -15 -10 -15 -5 0 -10 7 -10
15 0 8 5 15 10 15 6 0 10 -7 10 -15z m-845 -25 c3 -5 4 -10 1 -10 -2 0 -12 -3
-20 -6 -12 -5 -15 -2 -10 10 7 18 20 21 29 6z m-1149 -9 c-3 -5 3 -11 14 -14
17 -4 19 -9 11 -30 -5 -14 -7 -29 -3 -33 4 -5 -2 -1 -14 9 -11 9 -23 15 -26
12 -3 -3 -11 1 -17 9 -10 12 -9 19 6 34 18 21 39 30 29 13z m349 -21 c3 -5 1
-10 -4 -10 -6 0 -11 5 -11 10 0 6 2 10 4 10 3 0 8 -4 11 -10z m1977 3 c-13 -3
-26 -12 -28 -21 -3 -9 -12 -29 -20 -45 -12 -22 -13 -27 -2 -25 8 2 14 -8 16
-24 3 -21 9 -28 25 -28 l22 -1 -22 -12 c-18 -10 -20 -15 -9 -29 17 -23 62 -23
70 -1 5 12 10 13 18 5 9 -9 7 -17 -7 -32 -22 -24 -77 -27 -95 -5 -7 9 -16 12
-19 7 -3 -5 -15 -6 -25 -2 -19 6 -19 7 2 28 12 12 18 22 13 22 -5 0 -11 9 -14
20 -3 13 0 20 9 20 8 0 14 5 14 10 0 6 -4 10 -8 10 -5 0 -15 11 -22 25 -7 14
-20 25 -29 26 -13 0 -13 2 -2 6 10 4 8 9 -10 20 l-24 14 30 -5 c17 -2 38 1 47
8 10 7 34 13 55 13 21 0 28 -2 15 -4z m-2522 -61 c0 -7 -4 -10 -10 -7 -5 3
-10 16 -10 28 0 18 2 19 10 7 5 -8 10 -21 10 -28z m430 28 c0 -5 -2 -10 -4
-10 -3 0 -8 5 -11 10 -3 6 -1 10 4 10 6 0 11 -4 11 -10z m1880 -62 c0 -28 9
-42 33 -51 9 -3 17 -14 16 -24 0 -11 -3 -13 -6 -5 -2 6 -13 12 -23 12 -10 0
-21 6 -23 13 -4 9 -6 9 -6 -1 -1 -7 6 -15 14 -18 8 -4 15 -10 15 -14 0 -15
-50 15 -56 33 -3 9 -12 17 -20 17 -8 0 -14 6 -14 13 -1 6 -10 1 -21 -12 -12
-15 -17 -31 -13 -43 11 -36 12 -69 1 -65 -6 2 -15 17 -19 33 -5 21 -14 30 -29
31 -31 3 -42 17 -34 43 5 14 13 20 24 17 22 -5 72 32 53 40 -18 7 -4 23 21 22
20 0 21 -1 3 -8 -16 -6 -17 -9 -6 -16 10 -6 20 0 34 18 19 26 20 27 38 7 10
-10 18 -29 18 -42z m-2080 12 c0 -5 -2 -10 -4 -10 -3 0 -8 5 -11 10 -3 6 -1
10 4 10 6 0 11 -4 11 -10z m40 0 c0 -5 -5 -10 -11 -10 -5 0 -7 5 -4 10 3 6 8
10 11 10 2 0 4 -4 4 -10z m1900 -5 c-7 -9 -15 -13 -17 -11 -7 7 7 26 19 26 6
0 6 -6 -2 -15z m-935 -5 c-3 -5 -12 -10 -18 -10 -7 0 -6 4 3 10 19 12 23 12
15 0z m38 -9 c-3 -11 -11 -22 -19 -25 -11 -4 -11 0 -2 19 13 30 28 33 21 6z
m183 -19 c-1 -15 1 -37 5 -49 5 -12 4 -23 -1 -25 -4 -2 -10 -14 -12 -28 -2
-19 1 -24 15 -22 9 2 17 -2 17 -8 0 -15 -33 -26 -38 -12 -2 6 -21 28 -42 49
-37 38 -44 51 -41 86 1 15 3 15 22 -4 11 -11 26 -18 32 -16 12 4 13 8 16 47 1
12 6 17 15 14 9 -3 14 -16 12 -32z m-568 2 c55 1 65 -12 20 -28 -29 -10 -98
19 -106 45 -4 11 -1 10 14 -2 13 -12 36 -16 72 -15z m-434 -5 c-8 -14 -24 -10
-24 6 0 9 6 12 15 9 8 -4 12 -10 9 -15z m1576 5 c0 -6 -6 -14 -13 -17 -7 -3
-13 3 -13 12 0 10 6 18 13 18 7 0 13 -6 13 -13z m-802 -11 c2 -7 -5 -16 -15
-20 -10 -3 -22 -11 -26 -17 -5 -6 -6 2 -2 17 5 24 4 27 -8 15 -8 -7 -12 -19
-10 -25 6 -14 -6 -17 -24 -5 -14 9 -6 22 22 39 24 15 57 12 63 -4z m-923 -4
c4 -6 -2 -13 -14 -16 -20 -5 -24 -17 -23 -68 1 -13 -1 -14 -4 -5 -3 9 -14 20
-26 25 -34 15 -37 39 -4 31 21 -5 26 -3 26 12 0 31 31 45 45 21z m1172 -11
c-3 -8 -6 -5 -6 6 -1 11 2 17 5 13 3 -3 4 -12 1 -19z m49 -11 c-1 -27 -5 -33
-18 -29 -21 5 -21 4 -8 36 13 36 27 32 26 -7z m-1109 7 c16 -16 95 -17 120 -1
12 8 43 -17 43 -34 0 -21 -21 -49 -37 -49 -12 0 -14 -7 -9 -30 3 -16 1 -30 -3
-30 -5 0 -17 -3 -27 -7 -12 -4 -15 -3 -10 5 8 13 -94 122 -114 122 -14 0 -13
13 2 28 15 15 16 15 35 -4z m441 -4 c18 -7 40 -9 49 -6 13 5 14 4 3 -9 -16
-19 -39 -19 -79 1 -18 9 -43 17 -56 18 -13 0 -21 5 -18 9 6 10 55 3 101 -13z
m1087 10 c3 -5 1 -10 -4 -10 -6 0 -11 5 -11 10 0 6 2 10 4 10 3 0 8 -4 11 -10z
m-1612 -14 c8 -21 -15 -48 -32 -37 -10 7 -11 13 -2 30 13 24 27 27 34 7z
m-138 -6 c3 -5 -3 -10 -14 -10 -11 0 -23 5 -26 10 -3 6 3 10 14 10 11 0 23 -4
26 -10z m1119 -15 c3 -8 1 -15 -4 -15 -6 0 -10 7 -10 15 0 8 2 15 4 15 2 0 6
-7 10 -15z m733 -20 c-23 -22 -33 -18 -12 5 10 11 20 18 23 16 2 -3 -3 -12
-11 -21z m351 -21 c-4 -3 -12 5 -18 18 -12 22 -12 22 6 6 10 -10 15 -20 12
-24z m-1336 2 c10 -7 15 -16 11 -19 -3 -4 -1 -7 5 -7 6 0 9 -7 6 -15 -4 -8
-10 -13 -14 -10 -5 3 -11 -1 -14 -7 -2 -7 -3 -2 -2 12 2 14 -3 33 -12 43 -18
20 -5 22 20 3z m528 -12 c0 -2 -9 -4 -20 -4 -11 0 -20 4 -20 9 0 5 9 7 20 4
11 -3 20 -7 20 -9z m492 -7 c7 -8 20 -16 28 -20 9 -3 4 -6 -12 -6 -16 -1 -28
4 -28 10 0 5 -4 8 -8 5 -5 -3 -9 1 -9 9 0 19 12 19 29 2z m214 -14 c-7 -7 -26
7 -26 19 0 6 6 6 15 -2 9 -7 13 -15 11 -17z m-61 -23 c0 -7 -5 -15 -10 -17 -6
-2 -11 6 -11 17 0 11 5 19 11 17 5 -2 10 -10 10 -17z m-708 4 c-3 -3 -12 -4
-19 -1 -8 3 -5 6 6 6 11 1 17 -2 13 -5z m-1172 -54 c14 11 19 7 16 -12 0 -5 5
-8 12 -8 7 0 27 -13 45 -30 44 -40 18 -40 -62 -1 -49 24 -61 27 -73 16 -7 -8
-13 -20 -13 -28 0 -21 -25 -28 -55 -17 -28 11 -29 12 -14 63 7 27 15 37 24 33
8 -3 17 -1 20 4 3 5 24 0 46 -11 32 -17 42 -19 54 -9z m805 10 c0 -5 -7 -7
-15 -4 -8 4 -15 8 -15 10 0 2 7 4 15 4 8 0 15 -4 15 -10z m-777 -105 c-5 -13
-23 -22 -23 -11 0 15 14 35 21 31 4 -3 6 -12 2 -20z m-42 -18 c-10 -9 -11 -8
-5 6 3 10 9 15 12 12 3 -3 0 -11 -7 -18z"/>
<path d="M5560 1905 c-11 -13 -10 -14 4 -9 9 3 16 10 16 15 0 13 -6 11 -20 -6z"/>
<path d="M3595 1500 c3 -5 8 -10 11 -10 2 0 4 5 4 10 0 6 -5 10 -11 10 -5 0
-7 -4 -4 -10z"/>
<path d="M5250 1218 c0 -19 2 -20 10 -8 8 13 11 12 22 -3 11 -14 21 -17 42
-11 28 7 28 7 -20 25 -27 11 -50 19 -51 19 -2 0 -3 -10 -3 -22z"/>
<path d="M5575 1150 c-3 -5 -1 -10 4 -10 6 0 11 5 11 10 0 6 -2 10 -4 10 -3 0
-8 -4 -11 -10z"/>
<path d="M54 2890 c-17 -4 -36 -10 -42 -14 -15 -9 -16 -66 -2 -66 6 0 10 3 10
8 0 4 18 16 40 26 30 14 43 17 52 8 8 -8 1 -15 -29 -27 -37 -15 -39 -18 -38
-58 1 -23 -1 -46 -4 -52 -13 -24 -11 -87 4 -113 18 -30 62 -56 71 -41 3 5 15
9 28 9 13 0 35 13 50 30 15 17 32 28 38 24 7 -5 9 -2 5 9 -7 18 17 47 38 47 8
0 12 6 9 14 -7 17 -77 17 -108 -1 -13 -7 -27 -7 -49 1 -23 8 -31 8 -34 -1 -6
-18 -30 -16 -37 3 -8 21 -8 21 13 27 14 3 17 11 14 31 -4 21 -2 26 16 26 11 0
21 -3 21 -8 0 -4 9 -13 20 -19 16 -11 18 -10 14 2 -4 10 4 20 27 29 l33 14
-27 24 c-15 14 -27 30 -27 35 0 27 -57 45 -106 33z"/>
<path d="M5125 2856 c-16 -7 -36 -11 -43 -9 -7 3 -10 -1 -6 -11 8 -20 57 -21
74 -1 20 24 8 35 -25 21z"/>
<path d="M812 2807 c-16 -46 -15 -68 3 -61 12 5 35 60 35 87 0 21 -28 2 -38
-26z"/>
<path d="M1036 2781 c-4 -7 -5 -15 -2 -18 9 -9 19 4 14 18 -4 11 -6 11 -12 0z"/>
<path d="M695 2651 c-6 -11 9 -23 19 -14 9 9 7 23 -3 23 -6 0 -12 -4 -16 -9z"/>
<path d="M274 2579 c-3 -6 -2 -14 3 -18 5 -3 12 -14 16 -23 3 -10 14 -18 23
-18 11 0 14 5 10 16 -3 9 -6 24 -6 35 0 21 -34 27 -46 8z"/>
<path d="M4877 2583 c-4 -3 -7 -16 -7 -29 0 -25 27 -39 46 -23 9 7 19 7 32 0
19 -10 32 -6 32 11 0 4 -10 8 -22 8 -19 0 -20 2 -8 11 12 8 10 9 -8 4 -15 -4
-30 -1 -41 9 -10 9 -21 13 -24 9z"/>
<path d="M4970 2580 c0 -5 5 -10 10 -10 6 0 10 5 10 10 0 6 -4 10 -10 10 -5 0
-10 -4 -10 -10z"/>
<path d="M3150 2565 c0 -8 4 -15 10 -15 5 0 7 7 4 15 -4 8 -8 15 -10 15 -2 0
-4 -7 -4 -15z"/>
<path d="M230 2526 c0 -21 21 -31 31 -15 14 22 11 29 -11 29 -11 0 -20 -6 -20
-14z"/>
<path d="M1088 2523 c-35 -10 -48 -19 -48 -33 0 -17 4 -18 31 -8 39 14 48 4
27 -33 -14 -24 -15 -29 -3 -29 8 0 15 -5 15 -11 0 -5 -8 -9 -17 -8 -41 4 -44
0 -37 -38 9 -50 13 -56 31 -42 8 8 12 21 9 35 -5 17 -1 23 19 26 13 3 28 1 34
-5 13 -13 30 0 42 30 7 20 6 28 -6 37 -11 8 -14 20 -9 44 4 17 11 32 16 32 5
0 6 5 3 10 -8 14 -50 11 -107 -7z"/>
<path d="M5075 2499 c-4 -5 -13 -8 -21 -5 -8 3 -14 1 -14 -4 0 -12 30 -13 49
-1 8 5 9 11 3 15 -6 3 -14 1 -17 -5z"/>
<path d="M314 2436 l-51 -52 22 -28 c19 -24 30 -28 76 -29 30 0 68 6 84 14 37
17 46 54 16 64 -12 3 -21 12 -21 18 0 14 -54 68 -67 66 -4 -1 -31 -25 -59 -53z
m76 -71 c0 -8 -7 -15 -15 -15 -8 0 -15 7 -15 15 0 8 7 15 15 15 8 0 15 -7 15
-15z"/>
<path d="M1007 2453 c-12 -11 -7 -33 7 -33 12 0 26 20 26 36 0 7 -26 5 -33 -3z"/>
<path d="M240 2435 c0 -8 2 -15 4 -15 2 0 6 7 10 15 3 8 1 15 -4 15 -6 0 -10
-7 -10 -15z"/>
<path d="M560 2408 c0 -18 18 -34 28 -24 3 4 -2 14 -11 23 -16 16 -17 16 -17
1z"/>
<path d="M1230 2368 c0 -53 -27 -148 -42 -148 -4 0 -8 -6 -8 -14 0 -8 -8 -21
-19 -28 -10 -7 -51 -44 -91 -81 -41 -38 -100 -86 -131 -108 l-58 -39 23 -35
c13 -19 34 -60 47 -90 12 -30 27 -55 32 -55 5 0 7 7 4 14 -4 11 -1 13 10 9 14
-5 13 -3 -1 20 -36 55 -3 120 99 197 80 59 125 111 156 178 33 71 35 98 14
170 -21 71 -35 75 -35 10z"/>
<path d="M4075 2410 c3 -5 8 -10 11 -10 2 0 4 5 4 10 0 6 -5 10 -11 10 -5 0
-7 -4 -4 -10z"/>
<path d="M5047 2413 c-14 -13 -6 -23 18 -23 18 0 23 4 19 15 -6 16 -26 20 -37
8z"/>
<path d="M6609 2361 c52 -103 108 -255 132 -356 21 -86 24 -125 24 -285 0
-159 -3 -198 -23 -280 -44 -181 -126 -361 -220 -486 -64 -84 -215 -237 -297
-301 -326 -254 -790 -449 -1232 -519 -89 -14 -113 -21 -113 -33 0 -14 2 -14
11 -1 8 11 12 12 16 3 7 -20 51 -16 56 4 4 15 5 15 6 2 1 -11 11 -16 32 -17
17 0 41 -8 55 -17 14 -9 24 -11 24 -5 0 6 6 10 13 9 26 -3 37 2 37 16 0 8 5
15 10 15 6 0 10 -7 10 -16 0 -15 3 -15 27 1 23 16 25 16 20 1 -4 -10 -1 -16 8
-16 8 0 15 -4 15 -10 0 -15 57 -12 63 3 4 9 8 8 16 -3 10 -14 16 -7 12 14 -1
5 8 6 20 3 12 -3 30 0 41 6 16 9 22 9 25 0 3 -7 16 -13 30 -13 25 0 26 0 8 20
-20 23 -17 24 20 10 17 -7 24 -7 20 0 -4 6 7 10 24 10 18 0 31 -5 31 -12 0 -8
3 -9 8 -3 4 6 36 11 71 12 36 2 67 7 71 13 12 19 76 13 122 -11 20 -11 21 -10
11 2 -10 12 -8 15 10 15 12 0 25 -5 30 -10 4 -7 10 -6 17 4 9 13 11 13 20 0 9
-13 12 -13 21 4 9 15 13 16 21 5 7 -11 11 -11 15 -1 2 6 10 9 16 5 6 -4 8 0 4
10 -5 13 -1 17 19 17 19 0 25 4 20 15 -3 9 3 19 14 25 11 6 20 17 20 26 0 8 8
17 18 20 58 20 73 30 68 47 -3 14 3 17 44 17 39 0 50 4 55 19 8 25 73 91 90
91 7 0 22 11 33 25 11 14 26 25 33 25 8 0 27 18 42 40 16 22 34 40 41 40 7 0
23 12 37 26 16 18 31 24 48 21 17 -3 25 0 28 14 4 13 11 18 23 14 9 -3 27 4
40 15 15 13 31 18 46 14 22 -6 24 -3 24 30 0 35 1 36 28 30 22 -5 25 -4 15 7
-15 15 -17 33 -4 25 9 -6 25 28 35 77 4 17 11 25 18 21 6 -4 8 -3 5 3 -4 6 0
19 8 29 12 16 14 112 15 605 0 523 -2 588 -16 600 -9 7 -31 42 -50 78 -53 100
-99 173 -128 203 -14 15 -26 31 -26 36 0 5 -6 9 -14 9 -11 0 -8 -14 13 -56z
m85 -1677 c3 -8 2 -12 -4 -9 -6 3 -10 10 -10 16 0 14 7 11 14 -7z m-1334 -584
c0 -5 -4 -10 -10 -10 -5 0 -10 5 -10 10 0 6 5 10 10 10 6 0 10 -4 10 -10z"/>
<path d="M3292 2345 c0 -72 8 -111 19 -94 5 8 9 26 9 41 0 15 5 30 10 33 12 7
9 50 -5 62 -4 4 -5 2 -1 -4 4 -8 1 -13 -8 -13 -8 0 -17 6 -19 13 -3 6 -5 -10
-5 -38z"/>
<path d="M565 2350 c-3 -5 -1 -10 4 -10 6 0 11 5 11 10 0 6 -2 10 -4 10 -3 0
-8 -4 -11 -10z"/>
<path d="M3231 2264 c0 -11 3 -14 6 -6 3 7 2 16 -1 19 -3 4 -6 -2 -5 -13z"/>
<path d="M0 2255 c0 -8 4 -15 10 -15 5 0 7 7 4 15 -4 8 -8 15 -10 15 -2 0 -4
-7 -4 -15z"/>
<path d="M427 2254 c-11 -11 5 -34 24 -34 22 0 24 11 7 28 -13 13 -22 15 -31
6z"/>
<path d="M4620 2254 c0 -10 28 -33 33 -27 3 3 0 12 -8 19 -14 15 -25 18 -25 8z"/>
<path d="M3240 2233 c8 -4 20 -13 27 -22 7 -9 13 -11 13 -5 0 15 -22 34 -39
33 -14 0 -14 -1 -1 -6z"/>
<path d="M620 2214 c0 -8 5 -12 10 -9 6 3 10 10 10 16 0 5 -4 9 -10 9 -5 0
-10 -7 -10 -16z"/>
<path d="M1850 2223 c-30 -3 -53 -12 -70 -28 -26 -25 -194 -125 -210 -125 -5
0 -46 -25 -91 -57 -46 -31 -135 -84 -198 -118 -173 -94 -284 -154 -288 -158
-2 -2 6 -25 18 -51 17 -39 23 -45 35 -35 8 6 17 9 21 6 7 -8 75 46 158 125 33
32 64 58 69 58 8 0 114 76 126 91 22 27 137 65 227 75 35 3 68 12 73 18 57 74
96 106 148 123 53 17 57 21 60 51 3 26 0 32 -15 30 -10 -1 -38 -3 -63 -5z"/>
<path d="M4608 2188 l-22 -22 30 -13 c16 -6 35 -12 42 -13 20 0 14 28 -9 41
-17 9 -19 13 -8 20 10 6 11 9 2 9 -7 0 -23 -10 -35 -22z"/>
<path d="M4392 2176 c7 -8 15 -12 17 -11 5 6 -10 25 -20 25 -5 0 -4 -6 3 -14z"/>
<path d="M3310 2169 c0 -5 5 -7 10 -4 6 3 10 8 10 11 0 2 -4 4 -10 4 -5 0 -10
-5 -10 -11z"/>
<path d="M4370 2140 c-12 -7 -8 -10 14 -10 24 0 27 -2 16 -15 -11 -13 -10 -18
5 -28 20 -15 17 -52 -5 -52 -9 0 -16 -11 -18 -30 -1 -16 -3 -37 -4 -45 0 -8
-5 -18 -11 -21 -16 -11 1 -59 21 -59 13 0 14 2 3 9 -10 7 -8 12 10 24 12 9 26
14 29 12 4 -3 13 2 20 10 7 8 18 15 25 15 7 0 18 7 26 16 11 13 9 14 -17 9
-16 -4 -34 -8 -41 -10 -28 -9 -22 16 6 26 17 6 31 14 31 19 0 11 59 34 67 26
3 -3 -1 -6 -10 -6 -12 0 -17 -9 -17 -31 0 -16 4 -28 9 -24 16 9 105 13 116 5
17 -13 55 8 55 30 0 15 -8 22 -30 27 -16 3 -30 9 -30 13 0 4 -9 10 -20 13 -11
3 -20 2 -20 -3 0 -4 -9 -10 -20 -13 -11 -3 -20 -1 -20 4 0 5 4 9 9 9 5 0 8 7
7 16 -4 25 -84 67 -118 62 -15 -3 -28 -1 -28 4 0 11 -42 10 -60 -2z"/>
<path d="M4685 2070 c3 -5 14 -10 23 -10 15 0 15 2 2 10 -20 13 -33 13 -25 0z"/>
<path d="M4070 2025 c-10 -12 -9 -15 6 -16 11 0 14 -3 6 -6 -6 -2 -10 -9 -6
-14 3 -5 1 -9 -4 -9 -5 0 -9 -13 -10 -30 -1 -27 8 -35 32 -31 5 1 12 -3 16 -9
11 -18 41 0 35 21 -4 11 -2 19 3 19 16 0 23 30 12 50 -5 10 -24 23 -41 29 -39
13 -34 14 -49 -4z m60 -45 c0 -11 -4 -20 -8 -20 -4 0 -8 9 -8 20 0 11 4 20 8
20 4 0 8 -9 8 -20z"/>
<path d="M1880 1974 c-27 -18 -46 -40 -154 -189 -40 -55 -115 -158 -168 -230
-52 -71 -114 -159 -138 -195 -24 -36 -46 -67 -50 -70 -3 -3 -27 -36 -54 -73
-27 -38 -52 -65 -56 -60 -4 4 -10 22 -13 38 -4 17 -4 24 -1 18 8 -18 21 -16
28 5 3 9 9 24 12 32 4 8 0 6 -8 -4 -11 -14 -17 -16 -22 -7 -4 6 -2 19 5 27 6
8 9 17 5 21 -3 4 -13 -2 -21 -13 -14 -18 -15 -18 -9 0 6 15 3 17 -16 11 -15
-5 -20 -4 -16 4 4 6 0 11 -9 11 -9 0 -15 -3 -13 -7 2 -5 12 -26 22 -48 50
-113 158 -325 166 -325 4 0 11 30 15 68 11 112 22 164 50 222 26 57 113 199
143 236 22 27 39 53 54 84 7 14 19 31 26 39 7 7 16 27 19 43 3 16 16 37 29 47
13 10 24 24 24 30 0 6 5 11 10 11 6 0 10 9 10 21 0 11 5 17 10 14 6 -3 10 3
10 15 0 33 55 114 71 105 4 -3 10 8 14 24 3 15 19 41 35 56 28 27 40 55 23 55
-5 0 -19 -8 -33 -16z"/>
<path d="M4600 1943 c0 -5 -10 -9 -21 -10 -25 -2 -25 -2 -33 -29 -9 -31 22
-41 34 -11 l9 22 0 -22 c1 -13 -4 -23 -9 -23 -6 0 -8 -11 -6 -24 2 -14 -1 -27
-7 -29 -8 -2 -8 -5 0 -10 6 -4 25 4 41 18 31 26 48 33 37 15 -3 -5 0 -10 9
-10 8 0 17 -6 19 -12 3 -7 6 4 6 24 1 20 4 45 8 55 6 16 5 16 -10 4 -16 -12
-22 -8 -18 13 1 4 -10 5 -25 2 -21 -6 -25 -4 -21 8 4 9 2 18 -3 21 -6 4 -10 2
-10 -2z"/>
<path d="M5002 1933 c-21 -8 35 -45 60 -40 l23 4 -23 2 c-15 0 -26 9 -29 21
-5 21 -9 22 -31 13z"/>
<path d="M4273 1902 c-15 -10 4 -55 19 -50 18 6 22 44 5 51 -8 3 -18 2 -24 -1z"/>
<path d="M4230 1858 c0 -15 5 -30 10 -33 13 -8 13 25 0 45 -8 12 -10 9 -10
-12z"/>
<path d="M4471 1819 c-13 -42 -7 -65 9 -39 9 14 14 80 7 80 -2 0 -9 -18 -16
-41z"/>
<path d="M555 1825 c-30 -14 -29 -14 27 -15 66 0 97 8 76 21 -19 13 -69 9
-103 -6z"/>
<path d="M5370 1805 c0 -8 2 -15 4 -15 2 0 6 7 10 15 3 8 1 15 -4 15 -6 0 -10
-7 -10 -15z"/>
<path d="M4435 1760 c-3 -5 -1 -10 4 -10 6 0 11 5 11 10 0 6 -2 10 -4 10 -3 0
-8 -4 -11 -10z"/>
<path d="M4486 1731 c-4 -6 -2 -11 4 -11 7 0 10 -7 6 -15 -4 -11 2 -15 24 -15
17 0 30 5 30 10 0 6 -9 10 -20 10 -10 0 -23 7 -28 16 -6 11 -11 13 -16 5z"/>
<path d="M3163 1675 c-9 -25 4 -29 17 -6 7 15 7 21 0 21 -6 0 -13 -7 -17 -15z"/>
<path d="M625 1527 c-66 -33 -219 -112 -340 -176 -121 -64 -234 -122 -252
-130 -32 -13 -33 -14 -33 -77 0 -67 7 -76 36 -47 20 20 50 40 76 49 10 3 16
10 13 14 -2 4 12 14 33 23 39 17 73 37 82 48 3 4 79 44 170 89 91 45 172 88
180 95 8 7 49 30 90 51 41 21 77 42 78 46 2 5 8 6 13 2 5 -3 9 2 9 10 0 22
-18 66 -27 65 -5 -1 -62 -29 -128 -62z"/>
<path d="M3171 1574 c0 -11 3 -14 6 -6 3 7 2 16 -1 19 -3 4 -6 -2 -5 -13z"/>
<path d="M3241 1574 c0 -11 3 -14 6 -6 3 7 2 16 -1 19 -3 4 -6 -2 -5 -13z"/>
<path d="M3248 1513 c10 -4 10 -10 -3 -30 -16 -24 -16 -24 7 -12 22 11 38 28
38 39 0 3 -12 6 -28 6 -15 1 -21 -1 -14 -3z"/>
<path d="M1160 1331 c0 -6 4 -13 10 -16 6 -3 7 1 4 9 -7 18 -14 21 -14 7z"/>
<path d="M3176 1096 c3 -9 11 -16 16 -16 13 0 5 23 -10 28 -7 2 -10 -2 -6 -12z"/>
<path d="M3368 1103 c6 -2 18 -2 25 0 6 3 1 5 -13 5 -14 0 -19 -2 -12 -5z"/>
<path d="M3350 1030 c-12 -8 -10 -10 8 -10 13 0 20 4 17 10 -7 12 -6 12 -25 0z"/>
<path d="M3398 1031 c7 -4 12 -12 10 -17 -2 -5 7 -20 20 -34 12 -13 22 -19 22
-12 0 6 -5 14 -11 17 -5 4 -14 18 -19 31 -5 13 -15 24 -22 24 -10 0 -10 -2 0
-9z"/>
<path d="M1040 872 c0 -4 6 -14 13 -21 10 -11 9 -13 -5 -8 -20 7 -25 -9 -5
-16 10 -4 10 -6 0 -6 -7 -1 -13 -6 -13 -12 0 -13 -40 -65 -47 -61 -2 2 -8 0
-11 -4 -4 -4 -1 -4 6 0 17 10 15 -9 -3 -24 -8 -7 -15 -19 -15 -26 0 -8 -4 -14
-9 -14 -5 0 -13 -9 -16 -20 -3 -11 -13 -20 -21 -20 -8 0 -13 -6 -11 -12 1 -7
-4 -12 -11 -10 -8 1 -11 -2 -7 -8 3 -5 1 -15 -5 -22 -6 -7 -17 -22 -25 -33
-13 -20 -14 -20 -23 4 -6 17 -11 21 -16 12 -5 -7 0 -18 10 -27 18 -14 18 -14
-1 -30 -11 -8 -19 -20 -17 -25 1 -5 -3 -9 -9 -9 -5 0 -7 -4 -4 -10 6 -10 -6
-14 -37 -11 -10 1 -18 -2 -18 -8 0 -6 7 -8 15 -5 40 16 -2 -50 -181 -281 -12
-16 -42 -14 -54 4 -5 9 -17 -1 -40 -35 -42 -62 -39 -58 -46 -51 -4 4 6 23 21
42 15 20 24 39 21 42 -3 4 -7 4 -9 2 -2 -2 -25 -38 -52 -79 -27 -41 -53 -78
-59 -82 -6 -4 49 -7 122 -7 73 -1 132 3 132 8 0 5 6 16 13 23 7 7 18 24 25 38
7 14 26 45 42 70 17 25 38 58 48 73 74 122 113 181 119 186 5 3 16 22 26 41
10 20 33 53 52 73 20 21 42 52 51 69 17 33 102 141 115 146 9 4 -2 44 -29 106
-19 42 -32 58 -32 38z m-515 -732 c3 -5 1 -10 -4 -10 -6 0 -11 5 -11 10 0 6 2
10 4 10 3 0 8 -4 11 -10z m-100 -86 c-8 -8 -19 -23 -24 -32 -5 -9 -12 -14 -16
-10 -9 9 36 69 47 62 4 -3 1 -12 -7 -20z"/>
<path d="M1381 833 c-1 -15 161 -355 166 -349 2 2 -21 57 -51 122 -80 173
-115 241 -115 227z"/>
<path d="M750 525 c0 -8 2 -15 4 -15 2 0 6 7 10 15 3 8 1 15 -4 15 -6 0 -10
-7 -10 -15z"/>
<path d="M785 520 c-15 -17 -16 -20 -3 -20 9 0 19 7 22 16 10 25 1 27 -19 4z"/>
<path d="M756 478 c3 -5 10 -6 15 -3 13 9 11 12 -6 12 -8 0 -12 -4 -9 -9z"/>
<path d="M1561 445 c0 -5 6 -21 14 -35 8 -14 14 -20 14 -15 0 6 -6 21 -14 35
-8 14 -14 21 -14 15z"/>
<path d="M1611 338 c-1 -3 13 -37 30 -74 16 -38 41 -98 55 -134 41 -108 53
-130 68 -130 10 0 0 29 -33 98 -26 53 -64 131 -84 172 -20 41 -36 72 -36 68z"/>
<path d="M6010 196 c0 -2 7 -7 16 -10 8 -3 12 -2 9 4 -6 10 -25 14 -25 6z"/>
<path d="M364 72 c-38 -56 -47 -72 -41 -72 2 0 23 27 46 60 23 33 39 60 34 60
-4 0 -22 -21 -39 -48z"/>
<path d="M4825 100 c4 -6 11 -8 16 -5 14 9 11 15 -7 15 -8 0 -12 -5 -9 -10z"/>
<path d="M305 44 c-9 -15 -12 -23 -6 -20 11 7 35 46 28 46 -3 0 -12 -12 -22
-26z"/>
</g>
</svg>
